<?xml version="1.0" encoding="iso-8859-1"?>
<!-- Uploaded to: SVG Repo, www.svgrepo.com, Generator: SVG Repo Mixer Tools -->
<!DOCTYPE svg PUBLIC "-//W3C//DTD SVG 1.1//EN" "http://www.w3.org/Graphics/SVG/1.1/DTD/svg11.dtd">
<svg fill="#fff" height="800px" width="800px" version="1.1" id="Capa_1" xmlns="http://www.w3.org/2000/svg" xmlns:xlink="http://www.w3.org/1999/xlink" 
	 viewBox="0 0 345.134 345.134" xml:space="preserve">
<g>
	<path d="M62.549,252.369c-9.506,0-18.442,3.701-25.164,10.423c-13.874,13.875-13.874,36.452,0,50.327
		c6.722,6.721,15.658,10.422,25.164,10.422s18.442-3.702,25.163-10.422c6.721-6.721,10.423-15.658,10.423-25.164
		c0-9.505-3.702-18.442-10.423-25.163S72.055,252.369,62.549,252.369z M74.984,300.391c-3.321,3.321-7.737,5.15-12.435,5.15
		c-4.698,0-9.114-1.829-12.436-5.15c-6.856-6.857-6.856-18.014,0-24.871c3.321-3.322,7.737-5.151,12.436-5.151
		c4.697,0,9.113,1.829,12.435,5.15c3.322,3.322,5.151,7.738,5.151,12.436C80.135,292.653,78.306,297.069,74.984,300.391z"/>
	<path d="M318.144,274.188c-0.21-7.501-3.541-14.67-9.136-19.67l-52.374-46.799c3.393-3.516,6.552-7.243,9.456-11.16
		c0.618-0.631,1.141-1.352,1.553-2.142c13.073-18.52,20.587-40.958,20.587-64.543c0-29.765-12.02-62.442-32.152-87.412
		C233.999,15.081,205.654,0,176.263,0c-25.543,0-50.292,11.395-70.828,32.351c-17.977,3.975-33.666,12.256-45.911,24.5
		c-20.782,20.783-30.162,51.489-26.411,86.463c3.421,31.892,18.027,63.498,39.074,84.544c19.245,19.246,44.48,30.343,70.581,32.386
		l-3.145,55.938c-0.422,7.492,2.293,14.917,7.448,20.37c5.155,5.453,12.416,8.581,19.921,8.581h18.541
		c7.504,0,14.765-3.127,19.92-8.581c5.155-5.453,7.87-12.878,7.448-20.37l-3.564-63.404l47.854,53.555
		c5,5.596,12.169,8.926,19.671,9.137c0.254,0.007,0.506,0.011,0.759,0.011c7.235,0,14.268-2.902,19.395-8.029l13.11-13.11
		C315.433,289.036,318.355,281.69,318.144,274.188z M277.367,297.478c-2.613-0.074-5.012-1.188-6.754-3.137l-47.936-53.646
		c-5.366-6.005-12.813-9.207-20.429-9.207c-3.877,0-7.799,0.83-11.512,2.542c-11.226,5.178-23.144,7.96-35.07,8.481l89.517-89.517
		c-0.521,11.926-3.303,23.844-8.482,35.07c-5.076,11.006-2.397,23.842,6.665,31.94l53.646,47.936
		c1.95,1.742,3.063,4.141,3.138,6.754c0.073,2.614-0.904,5.072-2.754,6.92l-13.11,13.11
		C282.439,296.573,279.981,297.552,277.367,297.478z M157.594,317.193l3.203-56.98c10.334-0.85,20.618-3.146,30.541-6.93
		l3.593,63.911c0.146,2.61-0.762,5.094-2.559,6.994c-1.796,1.9-4.225,2.946-6.839,2.946h-18.541c-2.614,0-5.044-1.046-6.841-2.947
		C158.356,322.287,157.447,319.803,157.594,317.193z M72.252,69.579c16.857-16.857,42.365-24.397,71.816-21.243
		c27.938,2.997,55.502,15.671,73.735,33.905c13.173,13.173,21.79,29.694,25.456,47.222L134.234,238.489
		c-0.663,0.663-1.2,1.404-1.613,2.193c-17.708-3.607-34.412-12.257-47.705-25.551c-18.234-18.234-30.909-45.799-33.905-73.736
		C47.851,111.941,55.395,86.436,72.252,69.579z M242.066,53.761c17.636,21.873,28.164,50.327,28.164,76.113
		c0,14.016-3.173,27.544-8.912,39.77c2.333-12.385,2.54-25.007,0.712-37.323c-0.009-0.883-0.149-1.762-0.416-2.612
		c-3.852-22.34-14.405-43.519-31.081-60.196c-21.047-21.047-52.652-35.654-84.544-39.074c-3.016-0.323-5.997-0.542-8.946-0.671
		C149.446,22.066,162.779,18,176.263,18C200.103,18,223.472,30.7,242.066,53.761z"/>
</g>
</svg>